<?xml version="1.0" encoding="UTF-8"?>
<svg id="Layer_3" data-name="Layer 3" xmlns="http://www.w3.org/2000/svg" viewBox="0 0 77.17195 33.90745">
  <defs>
    <style>
      .cls-1 {
        fill: #de4927;
      }

      .cls-2 {
        fill: #0c5688;
      }
    </style>
  </defs>
  <path class="cls-2" d="m74.47717,7.73293s-14.42009.32438-23.34348,2.60694c-8.92339,2.28255-10.04382,6.694-12.28443,10.69541,0,0-1.60301,3.40794-5.22659,4.18234,0,0-4.24817,1.63005-9.67071-1.4641-3.54977-2.02553-8.38281-1.64361-11.07291-.9963-2.46363.59281-8.58613,5.22111-10.37428,8.74838,0,0,6.1461-12.22756,9.17283-16.70019,3.02672-4.47263,6.38711-8.87486,13.81852-11.42705,8.02345-2.75552,27.97316.51272,27.97316.51272l21.00789,3.84186Z"/>
  <path class="cls-1" d="m27.05783,8.62487l-3.609,1.62937c-.08754.03952-.15716.10355-.1986.1902-.39788.83203-2.39487,5.50489.9655,9.22919,3.70261,4.1036,8.21318,2.64698,8.21318,2.64698,0,0,4.31725-.5587,5.67033-4.69384,1.35308-4.13515.14875-8.04002-2.85207-10.16401,0,0,1.4388,2.22732,1.55183,3.81231.08701,1.21998-.10842,2.18198-.58294,2.85894-.18058.25761-.84119,1.06781-1.5024,1.50188-.77278.5073-1.98826.97823-3.70071.74159-3.29683-.45559-4.17435-3.463-4.17435-3.463,0,0-.7618-1.90264.21924-4.2896Z"/>
</svg>